# Blender v2.79 (sub 0) OBJ File: 'screw.blend'
# www.blender.org
mtllib circleramp.mtl
o Plane
v 0.991274 0.000000 0.000000
v 1.744879 0.000000 0.000000
v 0.972227 0.046875 -0.193388
v 1.711352 0.046875 -0.340409
v 0.915818 0.093750 -0.379344
v 1.612058 0.093750 -0.667736
v 0.824215 0.140625 -0.550723
v 1.450814 0.140625 -0.969403
v 0.700937 0.187500 -0.700937
v 1.233816 0.187500 -1.233816
v 0.550723 0.234375 -0.824215
v 0.969403 0.234375 -1.450814
v 0.379344 0.281250 -0.915818
v 0.667736 0.281250 -1.612058
v 0.193388 0.328125 -0.972227
v 0.340409 0.328125 -1.711352
v -0.000000 0.375000 -0.991274
v -0.000000 0.375000 -1.744879
v -0.193388 0.421875 -0.972227
v -0.340409 0.421875 -1.711352
v -0.379344 0.468750 -0.915818
v -0.667736 0.468750 -1.612058
v -0.550723 0.515625 -0.824214
v -0.969403 0.515625 -1.450814
v -0.700937 0.562500 -0.700937
v -1.233816 0.562500 -1.233816
v -0.824215 0.609375 -0.550723
v -1.450814 0.609375 -0.969403
v -0.915818 0.656250 -0.379344
v -1.612058 0.656250 -0.667736
v -0.972227 0.703125 -0.193388
v -1.711352 0.703125 -0.340409
v -0.991274 0.750000 0.000000
v -1.744879 0.750000 0.000000
v -0.972227 0.796875 0.193388
v -1.711352 0.796875 0.340409
v -0.915818 0.843750 0.379344
v -1.612058 0.843750 0.667736
v -0.824214 0.890625 0.550723
v -1.450814 0.890625 0.969403
v -0.700937 0.937500 0.700937
v -1.233815 0.937500 1.233816
v -0.550722 0.984375 0.824215
v -0.969402 0.984375 1.450814
v -0.379344 1.031250 0.915818
v -0.667736 1.031250 1.612058
v -0.193388 1.078125 0.972227
v -0.340409 1.078125 1.711352
v -0.000000 1.125000 0.991274
v 0.000000 1.125000 1.744879
v 0.193388 1.171875 0.972227
v 0.340409 1.171875 1.711352
v 0.379344 1.218750 0.915818
v 0.667737 1.218750 1.612058
v 0.550723 1.265625 0.824214
v 0.969403 1.265625 1.450814
v 0.700937 1.312500 0.700937
v 1.233816 1.312500 1.233815
v 0.824215 1.359375 0.550723
v 1.450814 1.359375 0.969403
v 0.915818 1.406250 0.379344
v 1.612058 1.406250 0.667736
v 0.972227 1.453125 0.193388
v 1.711352 1.453125 0.340409
v 0.991274 1.500000 -0.000000
v 1.744879 1.500000 -0.000000
v 0.972227 1.546875 -0.193388
v 1.711352 1.546875 -0.340409
v 0.915818 1.593750 -0.379345
v 1.612058 1.593750 -0.667737
v 0.824214 1.640625 -0.550723
v 1.450813 1.640625 -0.969403
v 0.700937 1.687500 -0.700937
v 1.233816 1.687500 -1.233816
v 0.550722 1.734375 -0.824215
v 0.969403 1.734375 -1.450814
v 0.379344 1.781250 -0.915818
v 0.667736 1.781250 -1.612058
v 0.193388 1.828125 -0.972227
v 0.340409 1.828125 -1.711352
v -0.000000 1.875000 -0.991274
v -0.000001 1.875000 -1.744879
v -0.193388 1.921875 -0.972227
v -0.340409 1.921875 -1.711352
v -0.379345 1.968750 -0.915818
v -0.667737 1.968750 -1.612058
v -0.550723 2.015625 -0.824214
v -0.969403 2.015625 -1.450814
v -0.700937 2.062500 -0.700936
v -1.233817 2.062500 -1.233815
v -0.824215 2.109375 -0.550722
v -1.450814 2.109375 -0.969402
v -0.915818 2.156250 -0.379344
v -1.612058 2.156250 -0.667736
v -0.972227 2.203125 -0.193388
v -1.711352 2.203125 -0.340408
v -0.991274 2.250000 0.000000
v -1.744879 2.250000 0.000000
v -0.972227 2.296875 0.193389
v -1.711351 2.296875 0.340410
v -0.915818 2.343750 0.379344
v -1.612058 2.343750 0.667737
v -0.824214 2.390625 0.550723
v -1.450813 2.390625 0.969404
v -0.700937 2.437500 0.700937
v -1.233815 2.437500 1.233816
v -0.550723 2.484375 0.824215
v -0.969403 2.484375 1.450814
v -0.379344 2.531250 0.915818
v -0.667735 2.531250 1.612058
v -0.193388 2.578125 0.972227
v -0.340409 2.578125 1.711352
v 0.000001 2.625000 0.991274
v 0.000001 2.625000 1.744879
v 0.193388 2.671875 0.972227
v 0.340409 2.671875 1.711352
v 0.379344 2.718750 0.915818
v 0.667736 2.718750 1.612058
v 0.550723 2.765625 0.824214
v 0.969403 2.765625 1.450813
v 0.700937 2.812500 0.700937
v 1.233816 2.812500 1.233816
v 0.824215 2.859375 0.550722
v 1.450814 2.859375 0.969402
v 0.915818 2.906250 0.379344
v 1.612058 2.906250 0.667736
v 0.972228 2.953125 0.193387
v 1.711352 2.953125 0.340408
v 0.991274 3.000000 -0.000000
v 1.744879 3.000000 -0.000001
vn 0.0168 0.9850 0.1713
vn 0.0334 0.9852 0.1681
vn 0.0656 0.9852 0.1583
vn 0.0952 0.9852 0.1425
vn 0.1212 0.9852 0.1212
vn 0.1425 0.9852 0.0952
vn 0.1583 0.9852 0.0656
vn 0.1681 0.9852 0.0334
vn 0.1714 0.9852 0.0000
vn 0.1681 0.9852 -0.0334
vn 0.1583 0.9852 -0.0656
vn 0.1425 0.9852 -0.0952
vn 0.1212 0.9852 -0.1212
vn 0.0952 0.9852 -0.1425
vn 0.0656 0.9852 -0.1583
vn 0.0334 0.9852 -0.1681
vn 0.0000 0.9852 -0.1714
vn -0.0334 0.9852 -0.1681
vn -0.0656 0.9852 -0.1583
vn -0.0952 0.9852 -0.1425
vn -0.1212 0.9852 -0.1212
vn -0.1425 0.9852 -0.0952
vn -0.1583 0.9852 -0.0656
vn -0.1681 0.9852 -0.0334
vn -0.1714 0.9852 0.0000
vn -0.1681 0.9852 0.0334
vn -0.1583 0.9852 0.0656
vn -0.1425 0.9852 0.0952
vn -0.1212 0.9852 0.1212
vn -0.0952 0.9852 0.1425
vn -0.0656 0.9852 0.1583
vn -0.0334 0.9852 0.1681
vn 0.0000 0.9852 0.1714
vn -0.0168 0.9850 0.1713
usemtl Material.002
s 1
f 1//1 2//1 4//2 3//2
f 3//2 4//2 6//3 5//3
f 5//3 6//3 8//4 7//4
f 7//4 8//4 10//5 9//5
f 9//5 10//5 12//6 11//6
f 11//6 12//6 14//7 13//7
f 13//7 14//7 16//8 15//8
f 15//8 16//8 18//9 17//9
f 17//9 18//9 20//10 19//10
f 19//10 20//10 22//11 21//11
f 21//11 22//11 24//12 23//12
f 23//12 24//12 26//13 25//13
f 25//13 26//13 28//14 27//14
f 27//14 28//14 30//15 29//15
f 29//15 30//15 32//16 31//16
f 31//16 32//16 34//17 33//17
f 33//17 34//17 36//18 35//18
f 35//18 36//18 38//19 37//19
f 37//19 38//19 40//20 39//20
f 39//20 40//20 42//21 41//21
f 41//21 42//21 44//22 43//22
f 43//22 44//22 46//23 45//23
f 45//23 46//23 48//24 47//24
f 47//24 48//24 50//25 49//25
f 49//25 50//25 52//26 51//26
f 51//26 52//26 54//27 53//27
f 53//27 54//27 56//28 55//28
f 55//28 56//28 58//29 57//29
f 57//29 58//29 60//30 59//30
f 59//30 60//30 62//31 61//31
f 61//31 62//31 64//32 63//32
f 63//32 64//32 66//33 65//33
f 65//33 66//33 68//2 67//2
f 67//2 68//2 70//3 69//3
f 69//3 70//3 72//4 71//4
f 71//4 72//4 74//5 73//5
f 73//5 74//5 76//6 75//6
f 75//6 76//6 78//7 77//7
f 77//7 78//7 80//8 79//8
f 79//8 80//8 82//9 81//9
f 81//9 82//9 84//10 83//10
f 83//10 84//10 86//11 85//11
f 85//11 86//11 88//12 87//12
f 87//12 88//12 90//13 89//13
f 89//13 90//13 92//14 91//14
f 91//14 92//14 94//15 93//15
f 93//15 94//15 96//16 95//16
f 95//16 96//16 98//17 97//17
f 97//17 98//17 100//18 99//18
f 99//18 100//18 102//19 101//19
f 101//19 102//19 104//20 103//20
f 103//20 104//20 106//21 105//21
f 105//21 106//21 108//22 107//22
f 107//22 108//22 110//23 109//23
f 109//23 110//23 112//24 111//24
f 111//24 112//24 114//25 113//25
f 113//25 114//25 116//26 115//26
f 115//26 116//26 118//27 117//27
f 117//27 118//27 120//28 119//28
f 119//28 120//28 122//29 121//29
f 121//29 122//29 124//30 123//30
f 123//30 124//30 126//31 125//31
f 125//31 126//31 128//32 127//32
f 127//32 128//32 130//34 129//34
o Cylinder
v 0.000000 0.000000 -1.000000
v 0.000000 3.000000 -1.000000
v 0.197041 0.000000 -0.980785
v 0.197041 3.000000 -0.980785
v 0.386510 0.000000 -0.923880
v 0.386510 3.000000 -0.923880
v 0.561126 0.000000 -0.831470
v 0.561126 3.000000 -0.831470
v 0.714178 0.000000 -0.707107
v 0.714178 3.000000 -0.707107
v 0.839784 0.000000 -0.555570
v 0.839784 3.000000 -0.555570
v 0.933118 0.000000 -0.382683
v 0.933118 3.000000 -0.382683
v 0.990593 0.000000 -0.195090
v 0.990593 3.000000 -0.195090
v 1.010000 0.000000 -0.000000
v 1.010000 3.000000 -0.000000
v 0.990593 0.000000 0.195090
v 0.990593 3.000000 0.195090
v 0.933118 0.000000 0.382683
v 0.933118 3.000000 0.382683
v 0.839784 0.000000 0.555570
v 0.839784 3.000000 0.555570
v 0.714178 0.000000 0.707107
v 0.714178 3.000000 0.707107
v 0.561126 0.000000 0.831470
v 0.561126 3.000000 0.831470
v 0.386510 0.000000 0.923880
v 0.386510 3.000000 0.923880
v 0.197041 0.000000 0.980785
v 0.197041 3.000000 0.980785
v -0.000000 0.000000 1.000000
v -0.000000 3.000000 1.000000
v -0.197042 0.000000 0.980785
v -0.197042 3.000000 0.980785
v -0.386511 0.000000 0.923879
v -0.386511 3.000000 0.923879
v -0.561126 0.000000 0.831469
v -0.561126 3.000000 0.831469
v -0.714178 0.000000 0.707106
v -0.714178 3.000000 0.707106
v -0.839785 0.000000 0.555570
v -0.839785 3.000000 0.555570
v -0.933119 0.000000 0.382683
v -0.933119 3.000000 0.382683
v -0.990593 0.000000 0.195089
v -0.990593 3.000000 0.195089
v -1.010000 0.000000 -0.000001
v -1.010000 3.000000 -0.000001
v -0.990593 0.000000 -0.195091
v -0.990593 3.000000 -0.195091
v -0.933118 0.000000 -0.382684
v -0.933118 3.000000 -0.382684
v -0.839784 0.000000 -0.555571
v -0.839784 3.000000 -0.555571
v -0.714177 0.000000 -0.707108
v -0.714177 3.000000 -0.707108
v -0.561125 0.000000 -0.831470
v -0.561125 3.000000 -0.831470
v -0.386509 0.000000 -0.923880
v -0.386509 3.000000 -0.923880
v -0.197040 0.000000 -0.980786
v -0.197040 3.000000 -0.980786
vn 0.0971 0.0000 -0.9953
vn 0.2876 0.0000 -0.9577
vn 0.4678 0.0000 -0.8839
vn 0.6306 0.0000 -0.7761
vn 0.7699 0.0000 -0.6382
vn 0.8800 0.0000 -0.4751
vn 0.9561 0.0000 -0.2929
vn 0.9951 0.0000 -0.0990
vn 0.9951 0.0000 0.0990
vn 0.9561 0.0000 0.2929
vn 0.8800 0.0000 0.4751
vn 0.7699 0.0000 0.6382
vn 0.6306 0.0000 0.7761
vn 0.4678 0.0000 0.8839
vn 0.2876 0.0000 0.9577
vn 0.0971 0.0000 0.9953
vn -0.0971 0.0000 0.9953
vn -0.2877 0.0000 0.9577
vn -0.4678 0.0000 0.8839
vn -0.6306 0.0000 0.7761
vn -0.7699 0.0000 0.6382
vn -0.8800 0.0000 0.4751
vn -0.9561 0.0000 0.2929
vn -0.9951 0.0000 0.0990
vn -0.9951 0.0000 -0.0990
vn -0.9561 0.0000 -0.2929
vn -0.8800 0.0000 -0.4751
vn -0.7699 0.0000 -0.6382
vn -0.6306 0.0000 -0.7761
vn -0.4678 0.0000 -0.8839
vn 0.0000 1.0000 -0.0000
vn -0.2876 0.0000 -0.9577
vn -0.0971 0.0000 -0.9953
vn 0.0000 -1.0000 0.0000
usemtl Material.001
s off
f 131//35 132//35 134//35 133//35
f 133//36 134//36 136//36 135//36
f 135//37 136//37 138//37 137//37
f 137//38 138//38 140//38 139//38
f 139//39 140//39 142//39 141//39
f 141//40 142//40 144//40 143//40
f 143//41 144//41 146//41 145//41
f 145//42 146//42 148//42 147//42
f 147//43 148//43 150//43 149//43
f 149//44 150//44 152//44 151//44
f 151//45 152//45 154//45 153//45
f 153//46 154//46 156//46 155//46
f 155//47 156//47 158//47 157//47
f 157//48 158//48 160//48 159//48
f 159//49 160//49 162//49 161//49
f 161//50 162//50 164//50 163//50
f 163//51 164//51 166//51 165//51
f 165//52 166//52 168//52 167//52
f 167//53 168//53 170//53 169//53
f 169//54 170//54 172//54 171//54
f 171//55 172//55 174//55 173//55
f 173//56 174//56 176//56 175//56
f 175//57 176//57 178//57 177//57
f 177//58 178//58 180//58 179//58
f 179//59 180//59 182//59 181//59
f 181//60 182//60 184//60 183//60
f 183//61 184//61 186//61 185//61
f 185//62 186//62 188//62 187//62
f 187//63 188//63 190//63 189//63
f 189//64 190//64 192//64 191//64
f 134//65 132//65 194//65 192//65 190//65 188//65 186//65 184//65 182//65 180//65 178//65 176//65 174//65 172//65 170//65 168//65 166//65 164//65 162//65 160//65 158//65 156//65 154//65 152//65 150//65 148//65 146//65 144//65 142//65 140//65 138//65 136//65
f 191//66 192//66 194//66 193//66
f 193//67 194//67 132//67 131//67
f 131//68 133//68 135//68 137//68 139//68 141//68 143//68 145//68 147//68 149//68 151//68 153//68 155//68 157//68 159//68 161//68 163//68 165//68 167//68 169//68 171//68 173//68 175//68 177//68 179//68 181//68 183//68 185//68 187//68 189//68 191//68 193//68
