# Blender v2.79 (sub 0) OBJ File: 'sharpHump.blend'
# www.blender.org
mtllib sharpHump.mtl
o Cube_Cube.001
v -2.000000 -0.010000 0.100000
v -2.000000 0.160000 0.000000
v -2.000000 -0.010000 -0.100000
v 2.000000 -0.010000 0.100000
v 2.000000 0.160000 0.000000
v 2.000000 -0.010000 -0.100000
vt 0.796535 0.640533
vt 0.796535 0.281624
vt 0.446957 0.362926
vt 0.893354 0.281251
vt 0.893354 0.000186
vt 0.446957 0.000186
vt 0.446957 0.281251
vt 0.796535 0.640905
vt 0.796535 0.999814
vt 0.446957 0.918512
vt 0.000186 0.728022
vt 0.000186 0.446957
vt 0.446584 0.446957
vt 0.446584 0.728022
vt 0.446584 0.000186
vt 0.000186 0.000186
vt 0.000186 0.446584
vt 0.446584 0.446584
vn -1.0000 0.0000 0.0000
vn 0.0000 0.5070 -0.8619
vn 1.0000 0.0000 0.0000
vn 0.0000 0.5070 0.8619
vn 0.0000 -1.0000 0.0000
usemtl None
s off
f 1/1/1 2/2/1 3/3/1
f 3/4/2 2/5/2 5/6/2 6/7/2
f 6/8/3 5/9/3 4/10/3
f 4/11/4 5/12/4 2/13/4 1/14/4
f 3/15/5 6/16/5 4/17/5 1/18/5
